<?xml version="1.0" encoding="UTF-8" standalone="no" ?>
<!DOCTYPE svg PUBLIC "-//W3C//DTD SVG 1.1//EN" "http://www.w3.org/Graphics/SVG/1.1/DTD/svg11.dtd">
<svg xmlns="http://www.w3.org/2000/svg" xmlns:xlink="http://www.w3.org/1999/xlink" version="1.1" width="1200" height="550" viewBox="0 0 1200 550" xml:space="preserve">
<desc>Created with Fabric.js 4.2.0</desc>
<defs>
</defs>
<g transform="matrix(0 0 0 0 0 0)" id="578f7876-3352-45c2-a258-a6adc2d2cedd"  >
</g>
<g transform="matrix(1 0 0 1 600 275)" id="3b9f9daf-182c-4f0a-9832-40bb3fc27e0c"  >
<rect style="stroke: none; stroke-width: 1; stroke-dasharray: none; stroke-linecap: butt; stroke-dashoffset: 0; stroke-linejoin: miter; stroke-miterlimit: 4; fill: rgb(255,255,255); fill-opacity: 0; fill-rule: nonzero; opacity: 1;" vector-effect="non-scaling-stroke"  x="-600" y="-275" rx="0" ry="0" width="1200" height="550" />
</g>
<g transform="matrix(1.72 0 0 1.72 251.04 275.08)"  >
<rect style="stroke: none; stroke-width: 1; stroke-dasharray: none; stroke-linecap: butt; stroke-dashoffset: 0; stroke-linejoin: miter; stroke-miterlimit: 4; fill: rgb(255,255,255); fill-rule: nonzero; opacity: 1;" vector-effect="non-scaling-stroke"  x="-135" y="-135" rx="30" ry="30" width="270" height="270" />
</g>
<g transform="matrix(1.72 0 0 1.72 140.1 291.4)"  >
<path style="stroke: none; stroke-width: 1; stroke-dasharray: none; stroke-linecap: butt; stroke-dashoffset: 0; stroke-linejoin: miter; stroke-miterlimit: 4; fill: rgb(77,36,61); fill-rule: nonzero; opacity: 1;" vector-effect="non-scaling-stroke"  transform=" translate(-70.27, -143.93)" d="M 43.2979 186.085 L 43.2979 101.772 L 55.2354 101.772 L 55.2354 176.335 L 97.2354 176.335 L 97.2354 186.085 L 43.2979 186.085 Z" stroke-linecap="round" />
</g>
<g transform="matrix(1.72 0 0 1.72 238.56 275.88)"  >
<path style="stroke: none; stroke-width: 1; stroke-dasharray: none; stroke-linecap: butt; stroke-dashoffset: 0; stroke-linejoin: miter; stroke-miterlimit: 4; fill: rgb(77,36,61); fill-rule: nonzero; opacity: 1;" vector-effect="non-scaling-stroke"  transform=" translate(-127.25, -135)" d="M 134.892 176.309 L 161.054 176.309 L 161.054 186.085 L 93.4456 186.085 L 93.4456 176.309 L 122.499 176.309 L 122.499 121.368 L 100.537 121.368 L 100.537 111.592 L 134.892 111.592 L 134.892 176.309 Z M 121.122 97.1338 L 121.122 83.915 L 134.892 83.915 L 134.892 97.1338 L 121.122 97.1338 Z" stroke-linecap="round" />
</g>
<g transform="matrix(1.72 0 0 1.72 344.13 291.4)"  >
<path style="stroke: none; stroke-width: 1; stroke-dasharray: none; stroke-linecap: butt; stroke-dashoffset: 0; stroke-linejoin: miter; stroke-miterlimit: 4; fill: rgb(77,36,61); fill-rule: nonzero; opacity: 1;" vector-effect="non-scaling-stroke"  transform=" translate(-188.33, -143.93)" d="M 214.578 186.085 L 205.953 162.21 L 170.765 162.21 L 162.203 186.085 L 149.953 186.085 L 181.828 101.772 L 195.39 101.772 L 226.703 186.085 L 214.578 186.085 Z M 188.453 110.772 L 187.703 113.21 L 183.39 126.46 L 173.953 152.897 L 202.89 152.897 L 192.078 121.647 L 188.453 110.772 Z" stroke-linecap="round" />
</g>
<g transform="matrix(1.72 0 0 1.72 589.64 291.3)"  >
<path style="stroke: none; stroke-width: 1; stroke-dasharray: none; stroke-linecap: butt; stroke-dashoffset: 0; stroke-linejoin: miter; stroke-miterlimit: 4; fill: rgb(255,255,255); fill-rule: nonzero; opacity: 1;" vector-effect="non-scaling-stroke"  transform=" translate(-330.25, -143.84)" d="M 358.812 170.719 C 359.896 170.719 361.125 170.573 362.5 170.281 L 362.5 177.281 C 359.667 177.948 356.771 178.281 353.812 178.281 C 349.646 178.281 346.604 177.198 344.688 175.031 C 342.812 172.823 341.75 169.385 341.5 164.719 L 341.125 164.719 C 338.417 169.76 335.208 173.385 331.5 175.594 C 327.833 177.802 323.292 178.906 317.875 178.906 C 311.292 178.906 306.333 177.115 303 173.531 C 299.667 169.948 298 165.031 298 158.781 C 298 144.24 307.458 136.865 326.375 136.656 L 341.125 136.406 L 341.125 132.719 C 341.125 127.26 340.021 123.344 337.812 120.969 C 335.604 118.552 332.083 117.344 327.25 117.344 C 322.333 117.344 318.792 118.219 316.625 119.969 C 314.458 121.719 313.167 124.427 312.75 128.094 L 301 127.031 C 302.917 114.865 311.729 108.781 327.438 108.781 C 335.771 108.781 342.021 110.74 346.188 114.656 C 350.396 118.531 352.5 124.156 352.5 131.531 L 352.5 160.656 C 352.5 163.99 352.938 166.51 353.812 168.219 C 354.688 169.885 356.354 170.719 358.812 170.719 Z M 320.75 170.344 C 324.75 170.344 328.292 169.385 331.375 167.469 C 334.458 165.552 336.854 162.99 338.562 159.781 C 340.271 156.573 341.125 153.26 341.125 149.844 L 341.125 144.281 L 329.25 144.531 C 324.333 144.615 320.583 145.156 318 146.156 C 315.417 147.156 313.396 148.698 311.938 150.781 C 310.521 152.823 309.812 155.552 309.812 158.969 C 309.812 162.385 310.729 165.135 312.562 167.219 C 314.438 169.302 317.167 170.344 320.75 170.344 Z" stroke-linecap="round" />
</g>
<g transform="matrix(1.72 0 0 1.72 721.59 312.98)"  >
<path style="stroke: none; stroke-width: 1; stroke-dasharray: none; stroke-linecap: butt; stroke-dashoffset: 0; stroke-linejoin: miter; stroke-miterlimit: 4; fill: rgb(255,255,255); fill-rule: nonzero; opacity: 1;" vector-effect="non-scaling-stroke"  transform=" translate(-406.53, -156.44)" d="M 435 143.531 C 435 167.115 426.833 178.906 410.5 178.906 C 400.25 178.906 393.354 175.073 389.812 167.406 L 389.5 167.406 C 389.667 167.74 389.75 171.198 389.75 177.781 L 389.75 204.219 L 378.438 204.219 L 378.438 124.031 C 378.438 116.948 378.312 112.281 378.062 110.031 L 389 110.031 C 389.042 110.198 389.104 110.823 389.188 111.906 C 389.271 112.948 389.354 114.51 389.438 116.594 C 389.562 118.635 389.625 120.156 389.625 121.156 L 389.875 121.156 C 391.958 116.781 394.604 113.615 397.812 111.656 C 401.062 109.656 405.292 108.656 410.5 108.656 C 418.75 108.656 424.896 111.51 428.938 117.219 C 432.979 122.885 435 131.656 435 143.531 Z M 423.375 143.531 C 423.375 134.115 422.104 127.406 419.562 123.406 C 417.021 119.365 413.021 117.344 407.562 117.344 C 401.271 117.344 396.729 119.635 393.938 124.219 C 391.146 128.76 389.75 135.656 389.75 144.906 C 389.75 153.781 391.146 160.281 393.938 164.406 C 396.729 168.531 401.229 170.594 407.438 170.594 C 412.979 170.594 417.021 168.49 419.562 164.281 C 422.104 160.073 423.375 153.156 423.375 143.531 Z" stroke-linecap="round" />
</g>
<g transform="matrix(1.72 0 0 1.72 854.53 312.98)"  >
<path style="stroke: none; stroke-width: 1; stroke-dasharray: none; stroke-linecap: butt; stroke-dashoffset: 0; stroke-linejoin: miter; stroke-miterlimit: 4; fill: rgb(255,255,255); fill-rule: nonzero; opacity: 1;" vector-effect="non-scaling-stroke"  transform=" translate(-483.41, -156.44)" d="M 511.875 143.531 C 511.875 167.115 503.708 178.906 487.375 178.906 C 477.125 178.906 470.229 175.073 466.688 167.406 L 466.375 167.406 C 466.542 167.74 466.625 171.198 466.625 177.781 L 466.625 204.219 L 455.312 204.219 L 455.312 124.031 C 455.312 116.948 455.188 112.281 454.938 110.031 L 465.875 110.031 C 465.917 110.198 465.979 110.823 466.062 111.906 C 466.146 112.948 466.229 114.51 466.312 116.594 C 466.438 118.635 466.5 120.156 466.5 121.156 L 466.75 121.156 C 468.833 116.781 471.479 113.615 474.688 111.656 C 477.938 109.656 482.167 108.656 487.375 108.656 C 495.625 108.656 501.771 111.51 505.812 117.219 C 509.854 122.885 511.875 131.656 511.875 143.531 Z M 500.25 143.531 C 500.25 134.115 498.979 127.406 496.438 123.406 C 493.896 119.365 489.896 117.344 484.438 117.344 C 478.146 117.344 473.604 119.635 470.812 124.219 C 468.021 128.76 466.625 135.656 466.625 144.906 C 466.625 153.781 468.021 160.281 470.812 164.406 C 473.604 168.531 478.104 170.594 484.312 170.594 C 489.854 170.594 493.896 168.49 496.438 164.281 C 498.979 160.073 500.25 153.156 500.25 143.531 Z" stroke-linecap="round" />
</g>
<g transform="matrix(1.72 0 0 1.72 985.18 291.3)"  >
<path style="stroke: none; stroke-width: 1; stroke-dasharray: none; stroke-linecap: butt; stroke-dashoffset: 0; stroke-linejoin: miter; stroke-miterlimit: 4; fill: rgb(255,255,255); fill-rule: nonzero; opacity: 1;" vector-effect="non-scaling-stroke"  transform=" translate(-558.97, -143.84)" d="M 540.75 146.219 C 540.75 153.802 542.417 159.74 545.75 164.031 C 549.125 168.323 553.729 170.469 559.562 170.469 C 563.854 170.469 567.604 169.552 570.812 167.719 C 574.062 165.844 576.229 163.302 577.312 160.094 L 587.188 162.906 C 585.354 168.073 581.979 172.031 577.062 174.781 C 572.188 177.531 566.354 178.906 559.562 178.906 C 549.729 178.906 542.167 175.844 536.875 169.719 C 531.583 163.594 528.938 154.823 528.938 143.406 C 528.938 132.281 531.521 123.74 536.688 117.781 C 541.896 111.781 549.396 108.781 559.188 108.781 C 568.979 108.781 576.396 111.76 581.438 117.719 C 586.479 123.677 589 132.677 589 144.719 L 589 146.219 L 540.75 146.219 Z M 559.312 117.094 C 553.729 117.094 549.312 118.927 546.062 122.594 C 542.812 126.219 541.083 131.219 540.875 137.594 L 577.375 137.594 C 576.208 123.927 570.188 117.094 559.312 117.094 Z" stroke-linecap="round" />
</g>
<g transform="matrix(1.72 0 0 1.72 1118.19 290.22)"  >
<path style="stroke: none; stroke-width: 1; stroke-dasharray: none; stroke-linecap: butt; stroke-dashoffset: 0; stroke-linejoin: miter; stroke-miterlimit: 4; fill: rgb(255,255,255); fill-rule: nonzero; opacity: 1;" vector-effect="non-scaling-stroke"  transform=" translate(-635.88, -143.22)" d="M 651.75 177.656 L 651.75 134.219 C 651.75 128.552 650.646 124.344 648.438 121.594 C 646.271 118.844 642.792 117.469 638 117.469 C 632.833 117.469 628.583 119.365 625.25 123.156 C 621.958 126.906 620.312 132.01 620.312 138.469 L 620.312 177.656 L 609.062 177.656 L 609.062 124.469 C 609.062 116.594 608.938 111.781 608.688 110.031 L 619.312 110.031 C 619.354 110.24 619.396 110.802 619.438 111.719 C 619.479 112.635 619.521 113.698 619.562 114.906 C 619.646 116.073 619.729 118.302 619.812 121.594 L 620 121.594 C 624.375 113.052 631.583 108.781 641.625 108.781 C 648.833 108.781 654.208 110.74 657.75 114.656 C 661.292 118.531 663.062 124.51 663.062 132.594 L 663.062 177.656 L 651.75 177.656 Z" stroke-linecap="round" />
</g>
<g transform="matrix(1.72 0 0 1.72 850.83 410.71)"  >
<path style="stroke: none; stroke-width: 1; stroke-dasharray: none; stroke-linecap: butt; stroke-dashoffset: 0; stroke-linejoin: miter; stroke-miterlimit: 4; fill: rgb(255,255,255); fill-rule: nonzero; opacity: 1;" vector-effect="non-scaling-stroke"  transform=" translate(-482.16, -212.72)" d="M 290 210.094 L 674.312 210.094 L 674.312 215.344 L 290 215.344 L 290 210.094 Z" stroke-linecap="round" />
</g>
</svg>