<svg width="675" height="270" viewBox="0 0 675 270" fill="none" xmlns="http://www.w3.org/2000/svg">
<rect width="270" height="270" rx="30" fill="#fff" />
<path d="M43.2979 186.085V101.772H55.2354V176.335H97.2354V186.085H43.2979Z" fill="#000"/>
<path d="M134.892 176.309H161.054V186.085H93.4456V176.309H122.499V121.368H100.537V111.592H134.892V176.309ZM121.122 97.1338V83.915H134.892V97.1338H121.122Z" fill="#000"/>
<path d="M214.578 186.085L205.953 162.21H170.765L162.203 186.085H149.953L181.828 101.772H195.39L226.703 186.085H214.578ZM188.453 110.772L187.703 113.21L183.39 126.46L173.953 152.897H202.89L192.078 121.647L188.453 110.772Z" fill="#000"/>
<path d="M358.812 170.719C359.896 170.719 361.125 170.573 362.5 170.281V177.281C359.667 177.948 356.771 178.281 353.812 178.281C349.646 178.281 346.604 177.198 344.688 175.031C342.812 172.823 341.75 169.385 341.5 164.719H341.125C338.417 169.76 335.208 173.385 331.5 175.594C327.833 177.802 323.292 178.906 317.875 178.906C311.292 178.906 306.333 177.115 303 173.531C299.667 169.948 298 165.031 298 158.781C298 144.24 307.458 136.865 326.375 136.656L341.125 136.406V132.719C341.125 127.26 340.021 123.344 337.812 120.969C335.604 118.552 332.083 117.344 327.25 117.344C322.333 117.344 318.792 118.219 316.625 119.969C314.458 121.719 313.167 124.427 312.75 128.094L301 127.031C302.917 114.865 311.729 108.781 327.438 108.781C335.771 108.781 342.021 110.74 346.188 114.656C350.396 118.531 352.5 124.156 352.5 131.531V160.656C352.5 163.99 352.938 166.51 353.812 168.219C354.688 169.885 356.354 170.719 358.812 170.719ZM320.75 170.344C324.75 170.344 328.292 169.385 331.375 167.469C334.458 165.552 336.854 162.99 338.562 159.781C340.271 156.573 341.125 153.26 341.125 149.844V144.281L329.25 144.531C324.333 144.615 320.583 145.156 318 146.156C315.417 147.156 313.396 148.698 311.938 150.781C310.521 152.823 309.812 155.552 309.812 158.969C309.812 162.385 310.729 165.135 312.562 167.219C314.438 169.302 317.167 170.344 320.75 170.344Z" fill="white"/>
<path d="M435 143.531C435 167.115 426.833 178.906 410.5 178.906C400.25 178.906 393.354 175.073 389.812 167.406H389.5C389.667 167.74 389.75 171.198 389.75 177.781V204.219H378.438V124.031C378.438 116.948 378.312 112.281 378.062 110.031H389C389.042 110.198 389.104 110.823 389.188 111.906C389.271 112.948 389.354 114.51 389.438 116.594C389.562 118.635 389.625 120.156 389.625 121.156H389.875C391.958 116.781 394.604 113.615 397.812 111.656C401.062 109.656 405.292 108.656 410.5 108.656C418.75 108.656 424.896 111.51 428.938 117.219C432.979 122.885 435 131.656 435 143.531ZM423.375 143.531C423.375 134.115 422.104 127.406 419.562 123.406C417.021 119.365 413.021 117.344 407.562 117.344C401.271 117.344 396.729 119.635 393.938 124.219C391.146 128.76 389.75 135.656 389.75 144.906C389.75 153.781 391.146 160.281 393.938 164.406C396.729 168.531 401.229 170.594 407.438 170.594C412.979 170.594 417.021 168.49 419.562 164.281C422.104 160.073 423.375 153.156 423.375 143.531Z" fill="white"/>
<path d="M511.875 143.531C511.875 167.115 503.708 178.906 487.375 178.906C477.125 178.906 470.229 175.073 466.688 167.406H466.375C466.542 167.74 466.625 171.198 466.625 177.781V204.219H455.312V124.031C455.312 116.948 455.188 112.281 454.938 110.031H465.875C465.917 110.198 465.979 110.823 466.062 111.906C466.146 112.948 466.229 114.51 466.312 116.594C466.438 118.635 466.5 120.156 466.5 121.156H466.75C468.833 116.781 471.479 113.615 474.688 111.656C477.938 109.656 482.167 108.656 487.375 108.656C495.625 108.656 501.771 111.51 505.812 117.219C509.854 122.885 511.875 131.656 511.875 143.531ZM500.25 143.531C500.25 134.115 498.979 127.406 496.438 123.406C493.896 119.365 489.896 117.344 484.438 117.344C478.146 117.344 473.604 119.635 470.812 124.219C468.021 128.76 466.625 135.656 466.625 144.906C466.625 153.781 468.021 160.281 470.812 164.406C473.604 168.531 478.104 170.594 484.312 170.594C489.854 170.594 493.896 168.49 496.438 164.281C498.979 160.073 500.25 153.156 500.25 143.531Z" fill="white"/>
<path d="M540.75 146.219C540.75 153.802 542.417 159.74 545.75 164.031C549.125 168.323 553.729 170.469 559.562 170.469C563.854 170.469 567.604 169.552 570.812 167.719C574.062 165.844 576.229 163.302 577.312 160.094L587.188 162.906C585.354 168.073 581.979 172.031 577.062 174.781C572.188 177.531 566.354 178.906 559.562 178.906C549.729 178.906 542.167 175.844 536.875 169.719C531.583 163.594 528.938 154.823 528.938 143.406C528.938 132.281 531.521 123.74 536.688 117.781C541.896 111.781 549.396 108.781 559.188 108.781C568.979 108.781 576.396 111.76 581.438 117.719C586.479 123.677 589 132.677 589 144.719V146.219H540.75ZM559.312 117.094C553.729 117.094 549.312 118.927 546.062 122.594C542.812 126.219 541.083 131.219 540.875 137.594H577.375C576.208 123.927 570.188 117.094 559.312 117.094Z" fill="white"/>
<path d="M651.75 177.656V134.219C651.75 128.552 650.646 124.344 648.438 121.594C646.271 118.844 642.792 117.469 638 117.469C632.833 117.469 628.583 119.365 625.25 123.156C621.958 126.906 620.312 132.01 620.312 138.469V177.656H609.062V124.469C609.062 116.594 608.938 111.781 608.688 110.031H619.312C619.354 110.24 619.396 110.802 619.438 111.719C619.479 112.635 619.521 113.698 619.562 114.906C619.646 116.073 619.729 118.302 619.812 121.594H620C624.375 113.052 631.583 108.781 641.625 108.781C648.833 108.781 654.208 110.74 657.75 114.656C661.292 118.531 663.062 124.51 663.062 132.594V177.656H651.75Z" fill="white"/>
<path d="M290 210.094H674.312V215.344H290V210.094Z" fill="white"/>
</svg>
